# xmcd
#
# Track frame offsets: 
#        150
#        16658
#        37423
#        59967
#        83412
#        102118
#        123101
#        143417
#        158796
#        178607
#        199066
#        218454
#        235222
#        255619
#        274223
#        295159
#        318665
#
# Disc length: 4492 seconds
#
# Revision: 0
# Processed by: cddbd v1.5.2PL0 Copyright (c) Steve Scherf et al.
# Submitted via: ExactAudioCopy v0.99pb5
#
DISCID=ed118a11
DTITLE=空中補給合唱團 - 你的摯愛
DYEAR=1900
DGENRE=Country
TTITLE0=WHO AM I   我是誰
TTITLE1=BODY GLOVE  緊緊相擁
TTITLE2=DON'T THROW OUR LOVE AWAY  別拋下我們的愛
TTITLE3=WHY DON'T YOU COME OVER  你為何不來 
TTITLE4=TELL ME OF SPRING  為我捎來春天的消息
TTITLE5=YOURS TRULY  你的摯愛
TTITLE6=YOU ARETHE REASON  你就是原因
TTITLE7=ONLY ONEFOREVER  真愛到永遠
TTITLE8=IF YOU LOVE ME  如果你愛我
TTITLE9=THE SCENE  故事場景
TTITLE10=LEARNING TO MAKE LOVE TO YOU  學著向你示愛
TTITLE11=PEACHES AND CREAM  蜜桃與奶油
TTITLE12=HARD TO FORGET HER  忘記她太難
TTITLE13=ALL OUT LOVE  
TTITLE14=WITHOUT YOU  沒有你
TTITLE15=GOODBYE    
TTITLE16=I CAN WAIT FOREVER  電影魔鬼剋星主題曲
EXTD=
EXTT0=
EXTT1=
EXTT2=
EXTT3=
EXTT4=
EXTT5=
EXTT6=
EXTT7=
EXTT8=
EXTT9=
EXTT10=
EXTT11=
EXTT12=
EXTT13=
EXTT14=
EXTT15=
EXTT16=
PLAYORDER=
